#!OML:ASF H:\Dans Jumps\Project 1\Capture day 1\Session 1\subject.ASF
:FULLY-SPECIFIED
:DEGREES
300
root 0.0280174 11.6839 -16.9412 21.8355 0.274788 -1.18951
lowerback 58.001 1.33914 -0.445897
upperback 5.1497 1.95058 3.22846
thorax -16.0426 0.746354 2.92921
lowerneck -22.7718 0.483552 -1.16237
upperneck -3.806 1.06371 -3.25063
head 2.7072 0.391144 -0.783017
rclavicle -3.57812e-015 -3.8763e-015
rhumerus -42.9254 -5.98556 -75.9243
rradius 32.1285
rwrist 17.8996
rhand -19.2832 -22.2722
rfingers 7.12502
rthumb 7.03181 -52.1354
lclavicle -3.57812e-015 -3.8763e-015
lhumerus -44.7073 0.28829 88.304
lradius 15.5438
lwrist 19.9677
lhand -27.2321 -7.20779
lfingers 7.12502
lthumb -0.644262 22.771
rfemur -92.9634 -4.33242 22.6973
rtibia 106.289
rfoot -33.6857 -12.253
rtoes 0.3586
lfemur -93.0311 8.46604 -24.3037
ltibia 105.607
lfoot -31.1158 14.5991
ltoes -2.61397
301
root 0.0236436 11.7172 -16.8864 21.83 0.343961 -1.15641
lowerback 57.726 1.33064 -0.454028
upperback 5.13048 1.94247 3.24309
thorax -16.0475 0.746757 2.95167
lowerneck -22.8727 0.488548 -1.13819
upperneck -3.69186 1.06974 -3.23538
head 2.76653 0.391887 -0.7822
rclavicle -5.96354e-015 2.5842e-015
rhumerus -42.227 -5.96189 -76.0317
rradius 32.0995
rwrist 18.1359
rhand -19.2776 -22.1745
rfingers 7.12502
rthumb 7.0372 -52.0375
lclavicle -5.96354e-015 2.5842e-015
lhumerus -43.7716 0.669903 88.0069
lradius 15.477
lwrist 19.602
lhand -27.0862 -7.28719
lfingers 7.12502
lthumb -0.503389 22.692
rfemur -92.4723 -4.34073 22.6375
rtibia 106.132
rfoot -33.8699 -12.4623
rtoes 0.258091
lfemur -92.5378 8.37437 -24.1912
ltibia 105.412
lfoot -31.2303 14.7564
ltoes -2.91833
302
root 0.0192176 11.7565 -16.8283 21.8243 0.414195 -1.11655
lowerback 57.38 1.32177 -0.463191
upperback 5.11055 1.93306 3.25501
thorax -16.047 0.747383 2.97162
lowerneck -22.9526 0.485754 -1.12681
upperneck -3.56177 1.06791 -3.20201
head 2.82759 0.389617 -0.77371
rclavicle 1.98785e-015 1.78906e-015
rhumerus -41.498 -5.94305 -76.1264
rradius 32.187
rwrist 18.2662
rhand -19.2296 -22.0635
rfingers 7.12502
rthumb 7.08353 -51.9249
lclavicle 1.98785e-015 1.78906e-015
lhumerus -42.7921 0.941137 87.7804
lradius 15.6036
lwrist 19.6051
lhand -27.0027 -7.38407
lfingers 7.12502
lthumb -0.422692 22.5953
rfemur -91.9239 -4.33188 22.5549
rtibia 105.926
rfoot -34.0598 -12.6789
rtoes 0.166867
lfemur -91.9823 8.25321 -24.0604
ltibia 105.166
lfoot -31.3487 14.9515
ltoes -3.33099
303
root 0.0145222 11.8017 -16.767 21.8187 0.481106 -1.06578
lowerback 56.9686 1.31794 -0.48277
upperback 5.08552 1.92303 3.26385
thorax -16.0461 0.748953 2.99264
lowerneck -23.0041 0.470923 -1.13272
upperneck -3.42033 1.05306 -3.14374
head 2.88719 0.382259 -0.754895
rclavicle -4.77083e-015 6.75868e-015
rhumerus -40.7517 -5.92363 -76.2088
rradius 32.4154
rwrist 18.2012
rhand -19.161 -21.9752
rfingers 7.12502
rthumb 7.14977 -51.8344
lclavicle -4.77083e-015 6.75868e-015
lhumerus -41.7917 1.05115 87.6562
lradius 15.9524
lwrist 19.997
lhand -27.0455 -7.52443
lfingers 7.12502
lthumb -0.464044 22.4548
rfemur -91.323 -4.30357 22.4462
rtibia 105.668
rfoot -34.2391 -12.9072
rtoes 0.0540182
lfemur -91.3644 8.10323 -23.9156
ltibia 104.866
lfoot -31.4708 15.1772
ltoes -3.83142
